<?xml version="1.0" standalone="no"?>
<!DOCTYPE svg PUBLIC "-//W3C//DTD SVG 20010904//EN"
 "http://www.w3.org/TR/2001/REC-SVG-20010904/DTD/svg10.dtd">
<svg version="1.0" xmlns="http://www.w3.org/2000/svg"
 width="260.000000pt" height="260.000000pt" viewBox="0 0 260.000000 260.000000"
 preserveAspectRatio="xMidYMid meet">
<metadata>
Created by potrace 1.11, written by Peter Selinger 2001-2013
</metadata>
<g transform="translate(0.000000,260.000000) scale(0.100000,-0.100000)"
fill="#000000" stroke="none">
<path d="M690 2005 c-232 -47 -434 -223 -516 -450 -50 -136 -52 -314 -6 -462
63 -201 243 -383 446 -450 71 -23 97 -26 211 -26 114 0 140 3 210 26 84 28
182 81 227 124 l27 26 -47 52 -47 52 -30 -22 c-121 -91 -305 -127 -450 -90
-184 48 -340 206 -390 395 -19 71 -19 200 0 273 36 140 157 293 275 350 195
94 435 68 581 -62 l43 -38 50 51 49 50 -59 54 c-146 131 -369 188 -574 147z"/>
<path d="M1370 1920 c0 -38 3 -70 8 -70 4 0 27 14 52 30 25 16 60 35 78 41 26
9 32 16 32 40 l0 29 -85 0 -85 0 0 -70z"/>
<path d="M1479 1707 c-44 -31 -99 -88 -131 -135 -14 -21 -14 -28 3 -84 40
-126 34 -281 -13 -390 l-20 -47 25 -44 c31 -52 121 -145 165 -170 l32 -18 0
460 c0 254 -3 461 -7 460 -5 0 -29 -14 -54 -32z"/>
<path d="M1370 681 l0 -41 73 0 72 0 -43 20 c-24 11 -57 29 -73 41 l-29 20 0
-40z"/>
</g>
</svg>
